<?xml version="1.0" standalone="no"?>
<!DOCTYPE svg PUBLIC "-//W3C//DTD SVG 20010904//EN"
 "http://www.w3.org/TR/2001/REC-SVG-20010904/DTD/svg10.dtd">
<svg version="1.0" xmlns="http://www.w3.org/2000/svg"
 width="260.000000pt" height="260.000000pt" viewBox="0 0 260.000000 260.000000"
 preserveAspectRatio="xMidYMid meet">
<metadata>
Created by potrace 1.11, written by Peter Selinger 2001-2013
</metadata>
<g transform="translate(0.000000,260.000000) scale(0.100000,-0.100000)"
fill="#000000" stroke="none">
<path d="M1415 2220 c3 -5 2 -10 -3 -10 -16 0 -30 -44 -21 -68 5 -13 7 -28 4
-32 -3 -5 -1 -10 4 -12 6 -1 12 -14 15 -28 7 -41 17 -60 32 -60 8 0 14 -4 14
-9 0 -16 40 1 51 21 14 26 20 58 11 58 -7 0 -12 20 -15 63 -1 9 -5 17 -9 17
-4 0 -7 3 -7 8 4 22 -2 42 -11 37 -5 -3 -10 1 -10 9 0 11 -10 16 -31 16 -17 0
-28 -4 -24 -10z"/>
<path d="M1263 2173 c-12 -2 -25 -15 -30 -31 -10 -31 -6 -82 7 -82 4 0 7 -11
5 -25 -1 -14 1 -25 6 -25 5 0 5 -7 2 -17 -4 -10 -2 -14 4 -10 6 4 13 -2 16
-13 7 -27 51 -26 79 0 13 12 17 20 9 20 -11 0 -11 3 -1 15 8 10 9 15 2 15 -6
0 -9 7 -6 15 4 9 0 15 -7 15 -11 0 -11 3 1 10 12 7 12 10 1 10 -7 0 -11 6 -8
15 4 8 2 17 -3 20 -6 4 -10 13 -10 22 0 12 -39 58 -44 52 -1 -1 -11 -4 -23 -6z"/>
<path d="M1067 2122 c-9 -10 -14 -22 -10 -25 3 -4 1 -7 -7 -7 -9 0 -9 -4 -3
-12 6 -7 9 -21 8 -30 -2 -10 0 -18 4 -18 4 0 8 -6 8 -14 0 -8 7 -34 17 -59 15
-39 20 -44 46 -43 44 2 69 37 53 76 -6 16 -14 54 -15 80 -1 8 -7 20 -14 27 -7
7 -14 17 -16 22 -7 20 -54 23 -71 3z"/>
<path d="M888 2079 c-10 -5 -18 -16 -18 -24 0 -7 -6 -16 -12 -18 -10 -4 -10
-6 0 -6 6 -1 12 -12 12 -26 0 -14 6 -41 14 -60 8 -18 12 -36 9 -39 -9 -8 25
-37 49 -41 33 -7 71 32 57 57 -6 11 -8 26 -5 34 3 8 1 14 -5 14 -6 0 -8 4 -4
9 3 5 1 12 -5 16 -6 4 -8 11 -5 16 4 5 3 15 -2 22 -4 6 -8 15 -8 18 0 10 -30
34 -45 36 -8 1 -23 -2 -32 -8z"/>
<path d="M722 2022 c-21 -18 -27 -72 -8 -72 6 0 4 -5 -4 -10 -11 -7 -11 -10
-2 -10 7 0 11 -4 7 -9 -3 -5 -1 -12 5 -16 6 -4 8 -10 5 -15 -6 -10 21 -69 33
-72 33 -7 62 -3 62 8 0 8 4 14 9 14 5 0 9 11 9 25 0 14 -4 25 -8 25 -4 0 -5
11 -3 24 3 13 0 27 -6 30 -6 4 -11 17 -11 29 -1 50 -53 79 -88 49z"/>
<path d="M1598 1969 c-16 -4 -28 -5 -28 -2 0 3 -8 -1 -17 -8 -15 -12 -16 -12
-8 1 7 12 6 13 -6 3 -9 -7 -24 -14 -35 -16 -10 -1 -25 -6 -31 -10 -7 -5 -17
-5 -23 -2 -5 3 -10 2 -10 -2 0 -5 -9 -10 -20 -11 -11 -1 -29 -3 -40 -4 -11 -1
-20 -6 -20 -10 0 -4 -3 -7 -7 -7 -23 4 -54 -2 -49 -9 2 -4 -10 -7 -27 -7 -18
0 -37 -3 -43 -7 -6 -4 -21 -10 -35 -12 -13 -3 -25 -5 -26 -7 -2 -1 -7 -3 -13
-4 -5 -1 -12 -4 -15 -5 -7 -4 -16 -6 -60 -15 -22 -4 -46 -13 -54 -19 -11 -8
-13 -8 -8 1 5 8 -1 8 -19 -2 -15 -8 -31 -12 -36 -9 -5 3 -15 0 -23 -6 -8 -6
-19 -9 -25 -5 -5 3 -10 2 -10 -3 0 -5 -6 -9 -12 -10 -23 -1 -71 -13 -87 -21
-9 -4 -25 -7 -36 -7 -11 1 -26 -5 -34 -12 -7 -7 -20 -11 -27 -8 -8 3 -14 1
-14 -4 0 -6 -6 -10 -13 -10 -7 0 -21 -13 -30 -30 -10 -16 -15 -30 -11 -30 3 0
2 -6 -5 -13 -8 -10 -7 -17 2 -27 10 -10 9 -11 -3 -5 -13 8 -13 7 -1 -8 8 -10
11 -20 8 -24 -4 -3 -1 -15 5 -27 13 -23 14 -28 16 -69 1 -16 6 -26 10 -23 4 2
8 -5 9 -17 1 -12 4 -33 8 -47 4 -14 8 -35 9 -47 0 -13 5 -23 10 -23 5 0 6 -3
3 -7 -4 -3 -3 -11 2 -17 5 -6 11 -27 13 -46 1 -19 6 -37 10 -41 4 -3 9 -19 11
-37 2 -18 7 -35 10 -39 4 -3 7 -15 7 -25 0 -10 4 -18 9 -18 4 0 7 -11 6 -24
-2 -15 3 -27 12 -30 11 -5 12 -10 4 -19 -8 -10 -6 -19 5 -35 8 -12 11 -22 5
-22 -5 0 -3 -12 5 -27 7 -16 14 -35 14 -43 0 -17 21 -79 33 -97 5 -8 4 -13 -3
-13 -7 0 -6 -8 4 -21 8 -12 12 -28 9 -35 -3 -8 0 -14 6 -14 6 0 11 -6 11 -14
0 -8 12 -23 27 -34 32 -22 73 -34 73 -22 0 5 8 7 18 5 9 -1 26 5 36 14 11 9
16 10 12 4 -4 -7 -2 -13 3 -13 6 0 11 5 11 11 0 5 5 7 10 4 6 -4 16 -2 23 3 7
5 20 8 30 7 9 -2 17 0 17 4 0 7 7 9 50 13 11 1 20 6 20 10 0 4 9 5 20 3 11 -2
20 0 20 4 0 4 6 8 13 9 6 1 23 3 37 4 14 2 28 6 31 10 3 5 17 9 32 10 15 1 27
6 27 10 0 4 9 5 20 3 11 -2 20 0 20 5 0 5 10 7 22 5 12 -3 25 -1 28 3 4 6 63
24 112 34 7 2 16 8 20 13 5 6 8 5 8 -4 0 -10 3 -11 13 -2 8 6 17 8 20 4 4 -3
7 -1 7 6 0 7 7 11 15 8 8 -4 17 -2 21 4 3 6 12 8 20 5 7 -3 16 -1 20 5 3 5 15
7 26 3 14 -4 18 -2 14 5 -6 9 26 17 37 9 2 -2 12 4 22 12 17 13 18 13 10 0 -7
-12 -3 -11 18 3 15 9 27 15 27 13 0 -3 10 5 23 17 28 28 51 77 36 77 -8 0 -8
4 0 14 8 10 9 16 1 21 -6 3 -8 11 -5 16 4 5 2 9 -4 9 -5 0 -8 8 -6 18 1 9 -2
26 -8 37 -6 11 -10 24 -9 29 2 5 0 16 -4 25 -4 9 -9 27 -11 41 -2 13 -8 27
-11 30 -4 3 -7 12 -7 20 1 8 -1 20 -4 25 -3 6 -7 21 -9 35 -2 13 -9 28 -15 32
-9 6 -8 8 2 8 10 0 11 3 2 13 -6 8 -8 17 -4 20 3 4 2 7 -4 7 -9 0 -13 13 -14
53 0 9 -4 17 -7 17 -4 0 -9 14 -10 32 -2 17 -7 37 -13 44 -6 7 -8 18 -5 23 4
5 2 12 -3 16 -5 3 -8 14 -6 25 2 11 -1 20 -7 20 -5 0 -8 7 -5 15 4 8 1 17 -4
21 -6 3 -9 15 -6 25 3 10 1 19 -3 21 -5 2 -10 17 -13 33 -3 17 -10 43 -16 58
-6 16 -9 32 -6 37 3 5 1 11 -5 15 -5 3 -10 15 -10 26 0 11 -8 32 -17 47 -9 15
-17 28 -18 29 -6 13 -75 29 -97 22z"/>
<path d="M1970 1910 c0 -4 -11 -8 -25 -9 -48 -3 -55 -4 -55 -13 0 -4 -3 -7 -7
-7 -5 1 -11 0 -15 -1 -13 -4 -27 -7 -39 -9 -5 0 -7 -5 -4 -11 3 -5 1 -10 -4
-10 -16 0 -13 -36 4 -53 8 -8 12 -17 10 -19 -3 -2 9 -4 25 -3 16 1 32 4 36 7
3 4 12 4 20 1 8 -3 14 -1 14 5 0 6 8 9 18 7 9 -1 22 1 27 5 6 5 15 9 20 10 36
8 57 68 26 78 -6 2 -9 7 -6 12 3 4 -6 10 -20 12 -14 3 -25 2 -25 -2z"/>
<path d="M1990 1731 c0 -7 -6 -11 -15 -8 -8 4 -17 2 -20 -4 -4 -5 -12 -9 -18
-8 -36 4 -73 -25 -72 -58 0 -30 39 -65 54 -50 8 8 11 7 11 -3 0 -10 5 -9 19 4
13 12 21 14 26 6 5 -8 11 -7 22 2 8 6 24 13 35 15 43 7 67 54 43 86 -16 22
-65 33 -65 15 0 -9 -3 -8 -10 2 -7 12 -10 12 -10 1z"/>
<path d="M2050 1572 c0 -6 -23 -11 -77 -15 -11 -1 -19 -5 -16 -9 2 -5 -4 -8
-14 -8 -25 0 -53 -34 -43 -51 5 -7 7 -16 4 -20 -6 -10 22 -30 43 -30 21 -1 73
10 85 17 5 3 21 8 35 10 28 5 58 30 60 49 2 19 -36 61 -56 62 -12 1 -21 -1
-21 -5z"/>
<path d="M520 1521 c0 -4 -8 -8 -17 -9 -25 -2 -45 -8 -65 -16 -9 -4 -21 -5
-27 -2 -5 4 -12 -3 -16 -14 -4 -11 -11 -18 -16 -15 -17 11 -9 -35 9 -53 20
-20 62 -35 62 -23 0 6 17 10 58 13 6 1 12 6 12 12 0 6 5 4 10 -4 6 -10 10 -11
10 -2 0 6 9 12 20 12 37 0 51 62 20 91 -15 14 -60 22 -60 10z"/>
<path d="M2067 1378 c4 -8 -19 -12 -44 -9 -7 1 -13 -3 -13 -10 0 -6 -7 -9 -15
-5 -8 3 -15 1 -15 -4 0 -6 -7 -10 -16 -10 -8 0 -12 -4 -9 -10 3 -5 2 -10 -3
-10 -5 0 -7 -11 -4 -25 2 -14 11 -25 19 -25 8 0 11 -5 7 -11 -10 -17 68 -8 90
10 11 9 16 10 12 4 -4 -7 -2 -13 3 -13 6 0 11 4 11 9 0 5 11 8 25 7 13 -2 22
1 19 5 -3 5 1 9 9 9 32 0 42 66 13 83 -23 12 -97 16 -89 5z"/>
<path d="M568 1362 c-10 -2 -18 -7 -18 -12 0 -4 -10 -6 -22 -2 -12 3 -19 1
-15 -5 4 -5 -6 -8 -24 -5 -18 3 -29 0 -29 -7 0 -7 -4 -9 -10 -6 -5 3 -10 -1
-10 -10 0 -9 -4 -14 -8 -11 -5 3 -7 -5 -6 -17 1 -12 3 -25 3 -29 1 -4 12 -15
26 -24 22 -14 27 -14 55 -1 17 9 27 11 24 5 -4 -6 2 -5 15 1 12 7 26 9 31 6 6
-3 10 -1 10 4 0 6 3 10 8 9 11 -3 54 23 48 29 -3 4 -1 12 5 20 9 10 8 13 0 13
-7 0 -10 3 -8 8 7 12 -31 43 -39 31 -4 -6 -9 -7 -13 -2 -3 5 -14 7 -23 5z"/>
<path d="M2120 1216 c-4 -4 -22 -9 -40 -11 -17 -1 -36 -7 -43 -14 -6 -6 -17
-11 -25 -11 -7 0 -10 -4 -7 -10 3 -5 1 -10 -5 -10 -7 0 -8 -6 -1 -19 6 -10 7
-21 4 -25 -3 -3 -1 -6 6 -6 7 0 9 -5 5 -12 -4 -7 -4 -10 0 -6 5 4 19 3 32 -2
16 -6 24 -6 24 1 0 6 8 9 18 8 9 -1 20 0 25 1 4 1 12 4 17 5 6 1 11 3 13 4 1
2 13 5 27 7 13 2 27 9 31 16 4 6 11 8 16 5 5 -3 10 10 11 29 2 23 -1 33 -8 29
-5 -3 -10 1 -10 10 0 9 -4 13 -10 10 -5 -3 -10 -2 -10 2 0 11 -58 11 -70 -1z"/>
<path d="M596 1179 c3 -5 -2 -6 -10 -3 -10 4 -16 1 -16 -7 0 -11 -3 -11 -10 1
-7 12 -10 12 -10 1 0 -7 -6 -11 -14 -8 -7 3 -19 0 -25 -6 -6 -6 -11 -7 -11 -2
0 4 -9 -2 -19 -14 -36 -42 -5 -95 51 -87 18 2 33 5 33 6 0 2 36 10 58 12 24 3
67 43 67 62 0 8 -7 21 -15 29 -8 8 -12 17 -10 19 3 2 -13 5 -35 5 -22 0 -37
-3 -34 -8z"/>
<path d="M660 1010 c0 -4 -6 -7 -12 -8 -7 0 -24 -3 -38 -7 -41 -10 -55 -13
-62 -14 -4 -1 -15 -12 -24 -26 -18 -27 -11 -65 12 -65 8 0 14 -4 14 -8 0 -5 7
-9 15 -9 8 0 15 5 15 11 0 6 5 4 10 -4 7 -11 10 -11 10 -2 0 7 4 11 8 8 5 -3
20 1 35 9 20 10 27 11 27 2 0 -8 3 -8 9 1 4 8 10 12 12 11 2 -2 12 1 21 7 22
12 31 55 15 75 -12 16 -67 32 -67 19z"/>
<path d="M730 841 c0 -4 -6 -8 -12 -9 -7 -1 -26 -4 -43 -7 -16 -4 -38 -7 -47
-8 -10 -1 -18 -5 -18 -9 0 -4 -7 -8 -15 -8 -8 0 -15 -5 -15 -11 0 -5 -4 -8 -9
-4 -8 5 -5 -64 3 -72 8 -8 86 -11 86 -3 0 4 11 7 25 5 14 -1 25 2 25 7 0 6 7
8 15 4 8 -3 15 -1 15 4 0 6 3 9 8 8 4 -2 17 7 30 20 12 12 18 22 12 22 -5 0
-7 7 -4 15 4 8 1 15 -6 15 -6 0 -9 3 -6 8 2 4 -7 12 -20 19 -13 6 -24 8 -24 4z"/>
<path d="M1792 770 c-17 -20 -24 -80 -9 -80 4 0 7 -8 7 -18 0 -10 6 -24 13
-31 8 -9 8 -12 0 -7 -8 5 -9 -1 0 -24 10 -27 28 -39 65 -46 6 -1 12 2 12 7 0
6 5 7 10 4 9 -6 14 8 11 28 0 4 3 7 9 7 6 0 6 9 0 26 -6 14 -8 30 -4 35 3 5 0
9 -6 9 -6 0 -9 4 -6 8 3 5 -1 19 -8 33 -7 13 -11 29 -9 35 3 10 -37 34 -58 34
-5 0 -17 -9 -27 -20z"/>
<path d="M1613 716 c-22 -26 -22 -42 -1 -84 9 -18 12 -29 6 -26 -7 5 -8 2 -3
-7 5 -7 10 -22 10 -32 2 -26 40 -57 65 -52 26 5 50 34 43 52 -3 7 1 13 8 13
11 0 11 2 2 8 -7 4 -14 17 -16 27 -8 44 -31 105 -39 105 -5 0 -7 4 -4 8 11 19
-55 7 -71 -12z"/>
<path d="M1453 680 c-20 -22 -26 -50 -11 -50 6 0 8 -6 5 -12 -2 -7 0 -24 6
-38 5 -14 11 -35 13 -48 3 -27 31 -57 53 -57 9 0 23 8 32 17 9 10 18 16 20 14
7 -7 2 62 -6 73 -3 6 -9 23 -11 37 -3 15 -6 32 -7 38 -3 18 -39 46 -59 46 -10
0 -26 -9 -35 -20z"/>
<path d="M1270 635 c-7 -14 -17 -25 -22 -25 -5 0 -6 -6 -1 -12 4 -7 8 -20 8
-28 0 -8 4 -21 8 -27 5 -7 5 -17 2 -23 -3 -5 -2 -10 4 -10 6 0 8 -6 5 -14 -3
-8 -1 -17 5 -21 6 -3 11 -16 11 -27 0 -12 3 -18 6 -15 4 3 15 2 24 -3 13 -7
25 -4 43 10 26 21 31 60 13 102 -4 9 -8 22 -10 30 -5 33 -32 78 -46 76 -8 -1
-20 1 -26 4 -6 4 -17 -3 -24 -17z"/>
<path d="M1116 595 c-25 -25 -37 -53 -27 -60 6 -3 8 -14 6 -25 -2 -11 0 -20 4
-20 4 0 8 -6 9 -12 1 -7 3 -23 4 -35 2 -12 11 -31 20 -42 9 -11 14 -22 11 -25
-4 -3 8 -6 25 -6 17 0 34 5 38 12 5 7 2 9 -7 4 -8 -4 -4 1 8 11 13 11 20 27
18 43 -1 14 -3 25 -4 25 -2 0 -4 7 -6 15 -8 38 -11 45 -20 52 -6 5 -5 8 3 8
10 0 9 4 -2 16 -9 8 -14 20 -11 25 4 5 -2 9 -12 9 -11 0 -24 5 -30 11 -7 7
-15 5 -27 -6z"/>
</g>
</svg>
